<?xml version="1.0" standalone="no"?>
<!DOCTYPE svg PUBLIC "-//W3C//DTD SVG 20010904//EN"
 "http://www.w3.org/TR/2001/REC-SVG-20010904/DTD/svg10.dtd">
<svg version="1.0" xmlns="http://www.w3.org/2000/svg"
 width="500.000000pt" height="500.000000pt" viewBox="0 0 500.000000 500.000000"
 preserveAspectRatio="xMidYMid meet">
<metadata>
Created by potrace 1.14, written by Peter Selinger 2001-2017
</metadata>
<g transform="translate(0.000000,500.000000) scale(0.100000,-0.100000)"
fill="#000000" stroke="none">
<path d="M1887 4382 l-607 -607 610 -610 610 -610 610 610 610 610 -607 607
c-335 335 -610 608 -613 608 -3 0 -278 -273 -613 -608z m719 -389 c223 -529
276 -648 290 -665 9 -9 32 -22 50 -28 19 -7 34 -18 34 -26 0 -12 -31 -14 -180
-14 -153 0 -180 2 -180 15 0 10 10 15 29 15 16 0 41 4 55 10 37 14 33 45 -22
180 l-47 115 -180 0 -179 0 -34 -85 c-53 -136 -45 -199 29 -215 16 -4 29 -13
29 -21 0 -11 -25 -14 -136 -14 -124 0 -135 2 -132 18 2 9 13 18 26 20 56 8 82
55 251 458 180 427 188 444 200 444 5 0 48 -93 97 -207z"/>
<path d="M2444 4004 c-4 -10 -40 -99 -80 -196 l-73 -178 166 0 c128 0 164 3
160 13 -86 209 -151 364 -158 371 -5 5 -11 1 -15 -10z"/>
<path d="M615 3110 l-610 -610 610 -610 610 -610 610 610 610 610 -610 610
-610 610 -610 -610z m756 -570 c185 -442 201 -470 257 -470 13 0 22 -6 22 -15
0 -13 -27 -15 -180 -15 -99 0 -180 4 -180 9 0 12 26 21 60 21 36 0 54 22 47
59 -4 17 -27 80 -53 141 l-46 110 -176 -2 -176 -3 -33 -85 c-19 -47 -36 -104
-40 -127 -5 -35 -2 -45 20 -67 15 -14 38 -26 52 -26 16 0 25 -6 25 -15 0 -13
-22 -15 -135 -15 -110 0 -135 3 -135 14 0 8 13 17 29 21 29 6 70 43 90 81 9
19 308 732 332 792 21 55 40 20 220 -408z"/>
<path d="M1117 2783 c-3 -4 -37 -87 -77 -183 -40 -96 -74 -178 -77 -182 -2 -5
70 -8 160 -8 l165 0 -77 185 c-80 191 -86 202 -94 188z"/>
<path d="M3165 3110 l-610 -610 610 -610 610 -610 610 610 610 610 -610 610
-610 610 -610 -610z m784 -180 c188 -31 340 -155 387 -318 24 -80 21 -230 -5
-314 -23 -72 -87 -165 -143 -209 -80 -62 -222 -109 -330 -109 -174 0 -343 82
-429 206 -64 93 -93 253 -70 379 47 252 303 411 590 365z"/>
<path d="M3800 2899 c-30 -4 -74 -14 -97 -24 -59 -24 -135 -109 -162 -182 -44
-119 -45 -349 -1 -465 55 -148 151 -212 320 -213 73 0 93 4 142 28 99 49 155
129 183 265 38 178 -1 395 -89 499 -56 67 -181 105 -296 92z"/>
<path d="M1887 1832 l-607 -607 501 -500 501 -500 -6 190 c-3 105 -6 301 -6
438 l0 247 -68 0 c-82 0 -102 -15 -102 -76 0 -46 6 -55 43 -72 23 -10 28 -18
25 -40 -7 -61 -102 -22 -134 55 -32 75 -6 165 56 195 43 22 228 26 248 6 9 -9
12 -137 12 -513 l0 -501 74 -73 74 -74 41 34 c23 18 58 52 76 75 l35 42 0 499
c0 375 3 502 12 511 20 20 205 16 248 -6 88 -43 94 -185 11 -255 -38 -32 -76
-35 -91 -7 -8 15 -6 24 10 40 11 11 26 20 34 20 29 0 36 81 10 118 -13 19 -24
22 -83 22 l-68 0 -7 -31 c-3 -17 -6 -214 -6 -438 l0 -407 500 501 500 500
-608 608 c-334 334 -609 607 -612 607 -3 0 -278 -273 -613 -608z m1231 -429
l-3 -48 -610 -3 c-565 -2 -611 -1 -622 15 -16 21 -17 55 -1 71 9 9 162 12 626
12 l613 0 -3 -47z m-100 -140 l-3 -38 -517 -3 c-510 -2 -517 -2 -523 18 -3 11
-3 29 0 40 6 20 15 20 526 20 l520 0 -3 -37z m-548 -623 l0 -510 -35 0 -35 0
0 503 c0 277 3 507 7 510 3 4 19 7 35 7 l28 0 0 -510z m128 -3 l2 -507 -34 0
-34 0 -7 488 c-4 269 -4 499 0 511 5 18 13 22 38 19 l32 -3 3 -508z"/>
</g>
</svg>
